<svg width="473" height="95" xmlns="http://www.w3.org/2000/svg" xmlns:xlink="http://www.w3.org/1999/xlink"><defs><path d="M14.407 26.728c1.053 0 1.815-.293 2.287-.878.471-.585.707-1.282.707-2.092 0-.45-.06-.866-.181-1.249a2.716 2.716 0 00-.576-1.012 2.773 2.773 0 00-.92-.607c-.374-.158-.812-.237-1.317-.237-.504 0-.943.08-1.315.237-.373.157-.68.36-.921.607a2.53 2.53 0 00-.56 1.03 4.57 4.57 0 00-.164 1.231c0 .81.23 1.507.69 2.092.461.585 1.218.878 2.27.878zm14.243 43.53v-3.61H16.513V33.747H0v3.61h12.598v29.29H0v3.611h28.65zm11.151 0l.033-27.84c.176-.674.395-1.349.658-2.024a6.329 6.329 0 011.086-1.822c.482-.585 1.102-1.052 1.858-1.4.757-.35 1.705-.535 2.845-.557 1.031-.023 1.88.135 2.55.472.668.338 1.2.788 1.595 1.35.395.585.669 1.254.822 2.008.154.753.23 1.513.23 2.278l.033 27.535h3.717l.033-27.502-.004-.16-.012-.143a2.53 2.53 0 01-.017-.304c.154-.675.373-1.339.658-1.991a6.186 6.186 0 011.152-1.755c.504-.517 1.129-.939 1.875-1.265.745-.326 1.666-.5 2.763-.523 1.074-.023 1.951.152 2.631.523.68.371 1.217.86 1.612 1.468a5.96 5.96 0 01.806 2.126c.142.787.214 1.574.214 2.362l.032 27.164h3.717l.033-27.13c0-1.395-.142-2.706-.427-3.932-.285-1.226-.757-2.3-1.415-3.222-.592-.878-1.414-1.58-2.467-2.11-1.052-.528-2.324-.792-3.815-.792-1.031 0-1.969.135-2.813.405-.844.27-1.606.63-2.286 1.08a8.286 8.286 0 00-1.677 1.484 9.491 9.491 0 00-1.218 1.789 8.613 8.613 0 00-.855-1.823 5.982 5.982 0 00-1.316-1.484c-.592-.45-1.293-.805-2.105-1.063-.811-.259-1.743-.388-2.796-.388-1.951.022-3.558.466-4.819 1.333-1.26.866-2.242 2.019-2.944 3.458l-.131-4.116h-3.52v36.511h3.684zm55.327.675c2.96 0 5.56-.596 7.796-1.788 2.237-1.192 4.035-2.756 5.395-4.69l-2.5-1.958c-1.272 1.62-2.796 2.857-4.572 3.712-1.777.855-3.761 1.282-5.954 1.282-1.908-.022-3.64-.416-5.197-1.18a12.264 12.264 0 01-4.013-3.139c-1.097-1.26-1.957-2.722-2.582-4.387-.625-1.665-.982-3.464-1.07-5.399v-1.114h26.644V49.81c0-2.317-.323-4.494-.97-6.53-.647-2.036-1.584-3.818-2.812-5.348-1.25-1.507-2.79-2.694-4.622-3.56-1.831-.866-3.92-1.3-6.266-1.3-2.237 0-4.315.473-6.234 1.418a15.655 15.655 0 00-5.016 3.914c-1.447 1.665-2.582 3.622-3.404 5.872-.823 2.25-1.234 4.68-1.234 7.289v1.45c0 2.453.406 4.764 1.217 6.935.812 2.171 1.952 4.078 3.421 5.72 1.447 1.62 3.19 2.902 5.23 3.847 2.04.945 4.287 1.417 6.743 1.417zm10.033-22.136H82.629c.22-1.755.658-3.38 1.316-4.876.657-1.496 1.502-2.796 2.532-3.898a11.215 11.215 0 013.52-2.548c1.338-.618 2.807-.928 4.408-.928 1.688 0 3.19.332 4.506.996a10.454 10.454 0 013.355 2.649c.9 1.102 1.607 2.384 2.122 3.847.515 1.462.773 2.924.773 4.387v.37zm24.769 21.461l-.066-23.385c.439-1.664 1.07-3.11 1.892-4.336.822-1.226 1.792-2.244 2.91-3.054a12.104 12.104 0 013.931-1.839c1.459-.394 3.021-.59 4.688-.59.965 0 1.908.056 2.829.168.92.113 1.83.27 2.73.473l.526-3.915c-.68-.225-1.519-.4-2.516-.523a23.909 23.909 0 00-2.944-.185c-3.224-.023-6.025.663-8.405 2.058-2.379 1.395-4.26 3.34-5.64 5.838l-.034-1.62-.23-5.601h-3.75v36.511h4.079zm45.623.675a21.53 21.53 0 005.494-.708c1.798-.473 3.377-1.204 4.736-2.194a9.99 9.99 0 002.73-3.087c.702-1.226 1.053-2.627 1.053-4.202 0-1.664-.367-3.087-1.102-4.268-.734-1.181-1.716-2.188-2.944-3.02-1.25-.833-2.697-1.519-4.342-2.059a55.99 55.99 0 00-5.164-1.417 54.503 54.503 0 01-4.03-.996c-1.282-.37-2.384-.838-3.305-1.4-.921-.518-1.623-1.164-2.106-1.94-.482-.777-.723-1.693-.723-2.75 0-1.058.274-1.986.822-2.785a6.648 6.648 0 012.138-1.974c.877-.54 1.88-.939 3.01-1.198a15.64 15.64 0 013.503-.388c1.272 0 2.506.169 3.7.506 1.196.338 2.265.822 3.208 1.452a7.901 7.901 0 012.253 2.328c.581.922.883 1.968.905 3.138h3.98c-.066-1.732-.477-3.273-1.234-4.623a11.042 11.042 0 00-3.01-3.442c-1.25-.922-2.713-1.625-4.39-2.109-1.678-.484-3.482-.725-5.412-.725-1.71 0-3.371.225-4.983.675-1.612.45-3.02 1.08-4.227 1.89-1.272.877-2.286 1.934-3.043 3.171-.756 1.238-1.135 2.644-1.135 4.218 0 1.665.379 3.077 1.135 4.235a9.155 9.155 0 002.977 2.852 20.863 20.863 0 004.243 1.923 47.63 47.63 0 005 1.316 39.32 39.32 0 014.178 1.148c1.337.45 2.478.99 3.42 1.62.856.562 1.525 1.242 2.007 2.04.483.8.724 1.728.724 2.785 0 .855-.181 1.63-.543 2.328a5.926 5.926 0 01-1.53 1.856c-1.008.788-2.203 1.378-3.585 1.772-1.381.394-2.85.59-4.408.59-1.184 0-2.395-.118-3.634-.354a11.029 11.029 0 01-3.405-1.232 8.4 8.4 0 01-2.615-2.311c-.713-.956-1.135-2.154-1.266-3.594h-3.947c.065 1.665.487 3.172 1.266 4.522.778 1.35 1.847 2.497 3.207 3.442 1.316.922 2.873 1.648 4.67 2.176 1.8.529 3.707.793 5.724.793zm31.94-44.24c.044-.809.269-1.523.674-2.142.406-.619.927-1.018 1.563-1.198.439-.202.894-.32 1.365-.354.472-.034.981.005 1.53.118a5.228 5.228 0 011.727.692 78.56 78.56 0 001.792 1.096c.592.405 1.212.76 1.859 1.063.647.304 1.398.456 2.253.456.92 0 1.76-.186 2.516-.557a5.627 5.627 0 001.925-1.535 6.336 6.336 0 001.266-2.177 8.564 8.564 0 00.477-2.649L223.874 19a6.16 6.16 0 01-.329 1.586 4.43 4.43 0 01-.69 1.282c-.307.383-.68.686-1.119.911a3.196 3.196 0 01-1.48.338c-.877 0-1.672-.191-2.385-.574a21.342 21.342 0 01-2.089-1.282 29.794 29.794 0 00-2.17-1.266c-.746-.393-1.58-.59-2.5-.59-.943 0-1.788.186-2.533.557a5.861 5.861 0 00-1.908 1.501 6.99 6.99 0 00-1.283 2.194 8.11 8.11 0 00-.493 2.632l2.598.405zm4.77 44.24c1.316 0 2.582-.14 3.799-.421a15.96 15.96 0 003.47-1.232 14.537 14.537 0 002.977-1.907 14.187 14.187 0 002.385-2.514c.044.945.126 1.879.247 2.801.12.922.301 1.789.542 2.598h4.21v-.438a34.02 34.02 0 01-.772-3.527 25.195 25.195 0 01-.346-3.695V44.95c-.022-1.98-.383-3.712-1.085-5.197a10.722 10.722 0 00-2.895-3.746c-1.228-.967-2.664-1.698-4.309-2.193-1.645-.495-3.41-.742-5.296-.742-1.886 0-3.656.27-5.312.81-1.656.54-3.108 1.282-4.358 2.227-1.25.967-2.248 2.103-2.994 3.408-.745 1.305-1.151 2.733-1.217 4.285l3.947.034c.044-1.147.34-2.176.889-3.087a7.561 7.561 0 012.17-2.312c.878-.63 1.897-1.114 3.06-1.451a13.03 13.03 0 013.65-.506c1.382 0 2.67.185 3.866.557 1.195.37 2.231.905 3.108 1.603a7.39 7.39 0 012.073 2.615c.504 1.046.767 2.255.789 3.627V49h-7.73a31.36 31.36 0 00-6.348.624c-2.018.417-3.783 1.086-5.296 2.008-1.535.923-2.758 2.12-3.668 3.594-.91 1.474-1.365 3.256-1.365 5.349 0 1.552.307 2.97.921 4.252a9.497 9.497 0 002.5 3.239c1.052.9 2.302 1.603 3.75 2.11 1.447.505 2.993.758 4.638.758zm.46-3.61c-1.162 0-2.247-.17-3.256-.507-1.009-.337-1.886-.81-2.632-1.417a6.317 6.317 0 01-1.792-2.244c-.428-.888-.642-1.873-.642-2.953-.022-1.372.263-2.53.855-3.475.592-.945 1.393-1.744 2.402-2.396 1.228-.81 2.719-1.372 4.473-1.687a33.637 33.637 0 015.56-.507h7.17v7.998a11.698 11.698 0 01-1.974 2.953 12.35 12.35 0 01-2.796 2.277 13.58 13.58 0 01-3.453 1.451c-1.25.338-2.555.507-3.915.507zm42.828 3.61c2.478 0 4.698-.495 6.66-1.484a15.177 15.177 0 004.984-3.982c1.338-1.688 2.369-3.64 3.092-5.855.724-2.216 1.086-4.572 1.086-7.07v-1.08c0-2.497-.362-4.859-1.086-7.086-.723-2.227-1.765-4.173-3.125-5.838a14.805 14.805 0 00-4.983-3.998c-1.963-.98-4.194-1.468-6.694-1.468s-4.726.495-6.677 1.484a15.229 15.229 0 00-4.967 3.982c-1.36 1.688-2.402 3.645-3.125 5.872-.724 2.227-1.086 4.578-1.086 7.053v1.08c0 2.497.362 4.859 1.086 7.086.723 2.227 1.776 4.173 3.158 5.838a14.433 14.433 0 004.966 3.998c1.974.979 4.21 1.468 6.71 1.468zm0-3.442c-1.952 0-3.673-.416-5.164-1.248a11.309 11.309 0 01-3.717-3.307c-1.031-1.395-1.804-2.992-2.32-4.792a21.126 21.126 0 01-.805-5.602v-1.08a21.01 21.01 0 01.806-5.567c.515-1.8 1.288-3.386 2.319-4.758a11.215 11.215 0 013.7-3.341c1.48-.832 3.185-1.249 5.115-1.249 1.93 0 3.635.417 5.115 1.249a11.884 11.884 0 013.766 3.34c.987 1.373 1.744 2.959 2.27 4.759.526 1.8.8 3.655.822 5.568v1.08a21.126 21.126 0 01-.806 5.601c-.515 1.8-1.266 3.386-2.253 4.758a11.946 11.946 0 01-3.75 3.34c-1.469.833-3.168 1.25-5.098 1.25z" id="a"/></defs><g fill="none" fill-rule="evenodd"><g fill-rule="nonzero"><use fill="#353535" xlink:href="#a"/><use fill="#FFF" xlink:href="#a"/></g><path fill="#FADA06" style="mix-blend-mode:screen" d="M287.858 0H473v95H287.858z"/><path d="M319.499 70.861c1.992 0 3.742-.38 5.253-1.138 1.51-.759 2.823-1.82 3.94-3.187l.46 3.675h8.24V20.267h-9.16v17.916c-1.095-1.214-2.348-2.152-3.76-2.813-1.411-.66-3.047-.992-4.908-.992-2.21 0-4.175.434-5.893 1.301s-3.179 2.092-4.383 3.674c-1.203 1.583-2.117 3.48-2.741 5.69-.624 2.212-.936 4.65-.936 7.317v.682c0 2.558.318 4.927.952 7.105.635 2.179 1.554 4.06 2.758 5.642a12.76 12.76 0 004.35 3.723c1.718.9 3.66 1.35 5.828 1.35zm2.33-7.348c-1.29 0-2.385-.271-3.282-.813-.898-.542-1.63-1.29-2.2-2.244-.57-.932-.98-2.032-1.231-3.3-.252-1.268-.378-2.64-.378-4.114v-.682c0-1.474.132-2.856.394-4.146.263-1.29.679-2.423 1.248-3.398a6.482 6.482 0 012.216-2.26c.908-.553 2.008-.829 3.3-.829 1.553 0 2.845.33 3.873.992 1.03.66 1.85 1.588 2.463 2.78V59.74c-.613 1.17-1.44 2.092-2.479 2.764-1.04.672-2.347 1.008-3.923 1.008zm42.32 7.348c3.436 0 6.413-.661 8.93-1.983 2.517-1.323 4.355-2.797 5.516-4.423l-4.564-4.877c-1.05 1.344-2.419 2.352-4.104 3.024a13.972 13.972 0 01-5.22 1.008c-1.27 0-2.44-.195-3.513-.585a9.118 9.118 0 01-2.856-1.659 8.63 8.63 0 01-1.937-2.324c-.482-.857-.876-1.99-1.182-3.398v-.098h24.098V51.71c0-2.58-.361-4.937-1.084-7.072-.722-2.135-1.772-3.961-3.151-5.479-1.401-1.517-3.103-2.693-5.106-3.528-2.002-.834-4.284-1.252-6.845-1.252-2.473 0-4.76.445-6.862 1.334-2.1.888-3.917 2.135-5.45 3.739-1.532 1.604-2.724 3.517-3.578 5.739-.854 2.222-1.28 4.677-1.28 7.365v1.3c0 2.363.432 4.58 1.296 6.65a15.652 15.652 0 003.694 5.381c1.598 1.54 3.513 2.753 5.745 3.642 2.233.889 4.717 1.333 7.453 1.333zm6.205-21.558h-14.971c.219-1.149.547-2.19.985-3.121a8.695 8.695 0 011.642-2.406 6.485 6.485 0 012.232-1.545c.854-.358 1.795-.536 2.823-.536 1.16 0 2.184.178 3.07.536.887.358 1.636.84 2.25 1.447a6.933 6.933 0 011.444 2.211c.35.845.525 1.745.525 2.699v.715zm36.77 20.908l13.494-35.182h-9.52l-7.782 24.81-.492 2.47-.493-2.47-7.813-24.81h-9.521l13.559 35.182h8.569zm50.659 7.056V70.21H427.84v7.056h29.942z" fill="#FFF" fill-rule="nonzero"/></g></svg>